<?xml version="1.0" encoding="UTF-8"?>
<svg xmlns="http://www.w3.org/2000/svg" width="32" height="32" viewBox="0 0 32 32">
  <title>gui_tab_players</title>
  <path d="M 26.200 8.500 L 26.164 9.048 L 26.057 9.587 L 25.880 10.107 L 25.637 10.600 L 25.332 11.057 L 24.970 11.470 L 24.557 11.832 L 24.100 12.137 L 23.607 12.380 L 23.087 12.557 L 22.548 12.664 L 22.000 12.700 L 21.452 12.664 L 20.913 12.557 L 20.393 12.380 L 19.900 12.137 L 19.443 11.832 L 19.030 11.470 L 18.668 11.057 L 18.363 10.600 L 18.120 10.107 L 17.943 9.587 L 17.836 9.048 L 17.800 8.500 L 17.836 7.952 L 17.943 7.413 L 18.120 6.893 L 18.363 6.400 L 18.668 5.943 L 19.030 5.530 L 19.443 5.168 L 19.900 4.863 L 20.393 4.620 L 20.913 4.443 L 21.452 4.336 L 22.000 4.300 L 22.548 4.336 L 23.087 4.443 L 23.607 4.620 L 24.100 4.863 L 24.557 5.168 L 24.970 5.530 L 25.332 5.943 L 25.637 6.400 L 25.880 6.893 L 26.057 7.413 L 26.164 7.952 Z M 25.520 11.000 L 25.906 11.038 L 26.278 11.151 L 26.620 11.334 L 26.920 11.580 L 27.166 11.880 L 27.349 12.222 L 27.462 12.594 L 27.500 12.980 L 27.500 26.020 L 27.462 26.406 L 27.349 26.778 L 27.166 27.120 L 26.920 27.420 L 26.620 27.666 L 26.278 27.849 L 25.906 27.962 L 25.520 28.000 L 18.480 28.000 L 18.094 27.962 L 17.722 27.849 L 17.380 27.666 L 17.080 27.420 L 16.834 27.120 L 16.651 26.778 L 16.538 26.406 L 16.500 26.020 L 16.500 12.980 L 16.538 12.594 L 16.651 12.222 L 16.834 11.880 L 17.080 11.580 L 17.380 11.334 L 17.722 11.151 L 18.094 11.038 L 18.480 11.000 Z M 17.500 12.500 L 17.453 13.218 L 17.313 13.924 L 17.081 14.605 L 16.763 15.250 L 16.363 15.848 L 15.889 16.389 L 15.348 16.863 L 14.750 17.263 L 14.105 17.581 L 13.424 17.813 L 12.718 17.953 L 12.000 18.000 L 11.282 17.953 L 10.576 17.813 L 9.895 17.581 L 9.250 17.263 L 8.652 16.863 L 8.111 16.389 L 7.637 15.848 L 7.237 15.250 L 6.919 14.605 L 6.687 13.924 L 6.547 13.218 L 6.500 12.500 L 6.547 11.782 L 6.687 11.076 L 6.919 10.395 L 7.237 9.750 L 7.637 9.152 L 8.111 8.611 L 8.652 8.137 L 9.250 7.737 L 9.895 7.419 L 10.576 7.187 L 11.282 7.047 L 12.000 7.000 L 12.718 7.047 L 13.424 7.187 L 14.105 7.419 L 14.750 7.737 L 15.348 8.137 L 15.889 8.611 L 16.363 9.152 L 16.763 9.750 L 17.081 10.395 L 17.313 11.076 L 17.453 11.782 Z M 16.480 16.000 L 16.972 16.048 L 17.444 16.192 L 17.880 16.425 L 18.262 16.738 L 18.575 17.120 L 18.808 17.556 L 18.952 18.028 L 19.000 18.520 L 19.000 26.980 L 18.952 27.472 L 18.808 27.944 L 18.575 28.380 L 18.262 28.762 L 17.880 29.075 L 17.444 29.308 L 16.972 29.452 L 16.480 29.500 L 7.520 29.500 L 7.028 29.452 L 6.556 29.308 L 6.120 29.075 L 5.738 28.762 L 5.425 28.380 L 5.192 27.944 L 5.048 27.472 L 5.000 26.980 L 5.000 18.520 L 5.048 18.028 L 5.192 17.556 L 5.425 17.120 L 5.738 16.738 L 6.120 16.425 L 6.556 16.192 L 7.028 16.048 L 7.520 16.000 Z" fill="#ea8638" fill-rule="nonzero"/>
</svg>
